<?xml version="1.0" encoding="utf-8"?>
<!-- Generator: Adobe Illustrator 16.0.0, SVG Export Plug-In . SVG Version: 6.00 Build 0)  -->
<!DOCTYPE svg PUBLIC "-//W3C//DTD SVG 1.1//EN" "http://www.w3.org/Graphics/SVG/1.1/DTD/svg11.dtd">
<svg version="1.1" id="Calque_1" xmlns="http://www.w3.org/2000/svg" xmlns:xlink="http://www.w3.org/1999/xlink" x="0px" y="0px"
	 width="20px" height="20px" viewBox="0 0 20 20" enable-background="new 0 0 20 20" xml:space="preserve">
<path d="M18.459,14.527l-0.293-0.251v-0.064c-0.204-0.024-0.404-0.069-0.592-0.16c-0.371-0.034-0.738-0.146-1.087-0.358
	l-0.116,0.074l-1.692-0.773c-0.93-0.425-1.72-0.844-1.756-0.931c-0.036-0.087-0.19-0.159-0.342-0.159h-0.277v-0.359l-0.44-0.119
	c-0.4-0.108-2.304-1.31-3.587-2.265C7.1,8.288,5.75,7.179,5.616,6.978L5.473,6.763L5.47,6.926L5.467,7.089l-1.159-0.92
	C3.67,5.662,2.989,5.04,2.793,4.785L2.438,4.323L1.852,4.351L1.266,4.378v1.174l0.419,0.062l0.418,0.062l0.345,0.392
	C2.637,6.284,2.875,6.46,2.975,6.46c0.101,0,0.385,0.159,0.631,0.353c0.247,0.194,0.648,0.489,0.893,0.655
	c0.245,0.167,0.586,0.438,0.759,0.605C5.43,8.24,5.823,8.558,6.132,8.779c0.309,0.222,0.834,0.608,1.169,0.858
	c0.334,0.25,0.959,0.694,1.389,0.988s0.825,0.588,0.879,0.655c0.054,0.066,0.515,0.346,1.026,0.621s0.928,0.57,0.928,0.655
	s0.11,0.156,0.245,0.156s0.548,0.192,0.921,0.427l0.677,0.426l-0.053,0.044c0.063,0.036,0.124,0.074,0.183,0.114l0.126,0.004
	c0.081,0.003,0.718,0.298,1.417,0.656l1.27,0.65l-0.002,0.196c0.211,0.022,0.421,0.054,0.62,0.134
	c0.133,0.053,0.259,0.109,0.385,0.166c0.039,0.011,0.076,0.027,0.117,0.033c0.129,0.026,0.25,0.068,0.366,0.116l0.04-0.105
	l0.459-0.216C18.825,15.106,18.87,14.879,18.459,14.527z"/>
<g>
</g>
<g>
</g>
<g>
</g>
<g>
</g>
<g>
</g>
<g>
</g>
<g>
</g>
<g>
</g>
<g>
</g>
<g>
</g>
<g>
</g>
<g>
</g>
<g>
</g>
<g>
</g>
<g>
</g>
</svg>
